<svg width="8150" height="2591" viewBox="0 0 8150 2591" fill="none" xmlns="http://www.w3.org/2000/svg">
<path d="M3424 1867.5C3404 1867.5 3389 1862 3379 1851C3369 1840 3364 1824.5 3364 1804.5V1179C3364 1159 3369 1144 3379 1134C3389 1123 3403.5 1117.5 3422.5 1117.5C3441.5 1117.5 3456 1123 3466 1134C3477 1144 3482.5 1159 3482.5 1179V1308L3466 1290C3487 1232 3521 1188.5 3568 1159.5C3616 1129.5 3671 1114.5 3733 1114.5C3791 1114.5 3839 1125 3877 1146C3916 1167 3945 1199 3964 1242C3983 1284 3992.5 1337.5 3992.5 1402.5V1804.5C3992.5 1824.5 3987 1840 3976 1851C3966 1862 3951.5 1867.5 3932.5 1867.5C3912.5 1867.5 3897 1862 3886 1851C3876 1840 3871 1824.5 3871 1804.5V1410C3871 1342 3857.5 1292.5 3830.5 1261.5C3804.5 1229.5 3762.5 1213.5 3704.5 1213.5C3637.5 1213.5 3584 1234.5 3544 1276.5C3505 1317.5 3485.5 1372.5 3485.5 1441.5V1804.5C3485.5 1846.5 3465 1867.5 3424 1867.5ZM4519.54 1870.5C4448.54 1870.5 4387.04 1855 4335.04 1824C4283.04 1793 4242.54 1749.5 4213.54 1693.5C4185.54 1636.5 4171.54 1569.5 4171.54 1492.5C4171.54 1434.5 4179.54 1382.5 4195.54 1336.5C4211.54 1289.5 4235.04 1249.5 4266.04 1216.5C4297.04 1183.5 4333.54 1158.5 4375.54 1141.5C4418.54 1123.5 4466.54 1114.5 4519.54 1114.5C4590.54 1114.5 4652.04 1130 4704.04 1161C4756.04 1192 4796.04 1236 4824.04 1293C4853.04 1349 4867.54 1415.5 4867.54 1492.5C4867.54 1550.5 4859.54 1602.5 4843.54 1648.5C4827.54 1694.5 4804.04 1734.5 4773.04 1768.5C4742.04 1801.5 4705.04 1827 4662.04 1845C4620.04 1862 4572.54 1870.5 4519.54 1870.5ZM4519.54 1773C4564.54 1773 4604.04 1762 4638.04 1740C4672.04 1718 4698.04 1686 4716.04 1644C4735.04 1602 4744.54 1551.5 4744.54 1492.5C4744.54 1401.5 4724.04 1332 4683.04 1284C4643.04 1236 4588.54 1212 4519.54 1212C4473.54 1212 4433.54 1223 4399.54 1245C4366.54 1266 4340.54 1297.5 4321.54 1339.5C4303.54 1380.5 4294.54 1431.5 4294.54 1492.5C4294.54 1582.5 4315.04 1652 4356.04 1701C4397.04 1749 4451.54 1773 4519.54 1773ZM5335.21 1870.5C5278.21 1870.5 5230.21 1860.5 5191.21 1840.5C5153.21 1819.5 5124.71 1789.5 5105.71 1750.5C5086.71 1710.5 5077.21 1662 5077.21 1605V1222.5H4976.71C4959.71 1222.5 4946.71 1218.5 4937.71 1210.5C4928.71 1201.5 4924.21 1189.5 4924.21 1174.5C4924.21 1159.5 4928.71 1148 4937.71 1140C4946.71 1132 4959.71 1128 4976.71 1128H5077.21V955.5C5077.21 935.5 5082.71 920.5 5093.71 910.5C5104.71 899.5 5119.71 894 5138.71 894C5157.71 894 5172.21 899.5 5182.21 910.5C5193.21 920.5 5198.71 935.5 5198.71 955.5V1128H5387.71C5404.71 1128 5417.71 1132 5426.71 1140C5435.71 1148 5440.21 1159.5 5440.21 1174.5C5440.21 1189.5 5435.71 1201.5 5426.71 1210.5C5417.71 1218.5 5404.71 1222.5 5387.71 1222.5H5198.71V1593C5198.71 1650 5210.71 1693.5 5234.71 1723.5C5258.71 1752.5 5297.71 1767 5351.71 1767C5370.71 1767 5386.71 1765 5399.71 1761C5413.71 1757 5425.21 1755 5434.21 1755C5443.21 1754 5450.71 1757 5456.71 1764C5462.71 1771 5465.71 1783 5465.71 1800C5465.71 1812 5463.21 1823 5458.21 1833C5454.21 1843 5446.71 1850 5435.71 1854C5423.71 1858 5407.71 1861.5 5387.71 1864.5C5368.71 1868.5 5351.21 1870.5 5335.21 1870.5ZM5737.91 2137.5C5722.91 2137.5 5710.91 2133.5 5701.91 2125.5C5692.91 2117.5 5687.41 2106.5 5685.41 2092.5C5684.41 2079.5 5686.91 2066 5692.91 2052L5796.41 1819.5V1872L5508.41 1203C5502.41 1188 5500.41 1174 5502.41 1161C5504.41 1148 5510.41 1137.5 5520.41 1129.5C5530.41 1121.5 5544.41 1117.5 5562.41 1117.5C5578.41 1117.5 5590.91 1121 5599.91 1128C5608.91 1135 5616.91 1147.5 5623.91 1165.5L5869.91 1768.5H5829.41L6078.41 1165.5C6086.41 1147.5 6094.91 1135 6103.91 1128C6112.91 1121 6125.91 1117.5 6142.91 1117.5C6158.91 1117.5 6170.91 1121.5 6178.91 1129.5C6187.91 1137.5 6192.91 1148 6193.91 1161C6195.91 1173 6193.91 1186.5 6187.91 1201.5L5803.91 2089.5C5795.91 2107.5 5786.91 2120 5776.91 2127C5767.91 2134 5754.91 2137.5 5737.91 2137.5ZM6645.17 1870.5C6572.17 1870.5 6509.17 1854.5 6456.17 1822.5C6403.17 1790.5 6362.17 1746 6333.17 1689C6305.17 1631 6291.17 1564 6291.17 1488C6291.17 1430 6299.17 1378 6315.17 1332C6331.17 1286 6354.67 1247 6385.67 1215C6416.67 1182 6453.67 1157 6496.67 1140C6540.67 1123 6590.17 1114.5 6645.17 1114.5C6681.17 1114.5 6718.67 1120 6757.67 1131C6796.67 1142 6832.17 1161 6864.17 1188C6874.17 1195 6880.67 1203.5 6883.67 1213.5C6886.67 1223.5 6886.67 1233.5 6883.67 1243.5C6880.67 1252.5 6875.67 1260.5 6868.67 1267.5C6861.67 1273.5 6852.67 1277 6841.67 1278C6831.67 1279 6821.17 1275.5 6810.17 1267.5C6784.17 1247.5 6757.67 1233.5 6730.67 1225.5C6703.67 1217.5 6677.67 1213.5 6652.67 1213.5C6613.67 1213.5 6579.67 1220 6550.67 1233C6521.67 1245 6497.17 1262.5 6477.17 1285.5C6457.17 1308.5 6441.67 1337 6430.67 1371C6420.67 1405 6415.67 1444.5 6415.67 1489.5C6415.67 1576.5 6436.17 1645.5 6477.17 1696.5C6518.17 1746.5 6576.67 1771.5 6652.67 1771.5C6677.67 1771.5 6703.17 1767.5 6729.17 1759.5C6756.17 1751.5 6783.17 1737.5 6810.17 1717.5C6821.17 1709.5 6831.67 1706 6841.67 1707C6851.67 1708 6860.17 1712 6867.17 1719C6874.17 1725 6878.67 1733 6880.67 1743C6883.67 1753 6883.67 1763 6880.67 1773C6877.67 1782 6871.17 1790 6861.17 1797C6829.17 1823 6794.17 1842 6756.17 1854C6718.17 1865 6681.17 1870.5 6645.17 1870.5ZM7254.14 1870.5C7204.14 1870.5 7159.14 1861 7119.14 1842C7080.14 1822 7049.14 1795 7026.14 1761C7003.14 1727 6991.64 1689 6991.64 1647C6991.64 1593 7005.14 1550.5 7032.14 1519.5C7060.14 1488.5 7105.64 1466.5 7168.64 1453.5C7232.64 1440.5 7319.64 1434 7429.64 1434H7497.14V1513.5H7431.14C7350.14 1513.5 7286.14 1517.5 7239.14 1525.5C7193.14 1532.5 7160.64 1545 7141.64 1563C7123.64 1581 7114.64 1606.5 7114.64 1639.5C7114.64 1680.5 7128.64 1714 7156.64 1740C7185.64 1766 7224.64 1779 7273.64 1779C7313.64 1779 7348.64 1769.5 7378.64 1750.5C7409.64 1731.5 7433.64 1705.5 7450.64 1672.5C7468.64 1639.5 7477.64 1601.5 7477.64 1558.5V1387.5C7477.64 1325.5 7465.14 1281 7440.14 1254C7415.14 1226 7374.14 1212 7317.14 1212C7282.14 1212 7247.14 1216.5 7212.14 1225.5C7177.14 1234.5 7140.14 1249 7101.14 1269C7087.14 1276 7075.14 1278.5 7065.14 1276.5C7055.14 1273.5 7047.14 1268 7041.14 1260C7035.14 1252 7031.64 1243 7030.64 1233C7029.64 1222 7031.64 1211.5 7036.64 1201.5C7042.64 1191.5 7051.64 1183.5 7063.64 1177.5C7107.64 1155.5 7151.14 1139.5 7194.14 1129.5C7237.14 1119.5 7278.14 1114.5 7317.14 1114.5C7380.14 1114.5 7432.14 1125 7473.14 1146C7514.14 1166 7544.64 1197 7564.64 1239C7584.64 1280 7594.64 1333 7594.64 1398V1804.5C7594.64 1824.5 7589.64 1840 7579.64 1851C7570.64 1862 7557.14 1867.5 7539.14 1867.5C7520.14 1867.5 7505.64 1862 7495.64 1851C7485.64 1840 7480.64 1824.5 7480.64 1804.5V1687.5H7494.14C7486.14 1725.5 7470.64 1758 7447.64 1785C7425.64 1812 7398.14 1833 7365.14 1848C7332.14 1863 7295.14 1870.5 7254.14 1870.5ZM8042.05 1870.5C7970.05 1870.5 7915.05 1848.5 7877.05 1804.5C7839.05 1760.5 7820.05 1697.5 7820.05 1615.5V850.5C7820.05 830.5 7825.05 815.5 7835.05 805.5C7845.05 794.5 7860.05 789 7880.05 789C7899.05 789 7914.05 794.5 7925.05 805.5C7936.05 815.5 7941.55 830.5 7941.55 850.5V1606.5C7941.55 1660.5 7952.05 1701 7973.05 1728C7995.05 1754 8027.05 1767 8069.05 1767C8078.05 1767 8086.05 1766.5 8093.05 1765.5C8100.05 1764.5 8107.05 1764 8114.05 1764C8125.05 1763 8132.55 1765.5 8136.55 1771.5C8141.55 1777.5 8144.05 1789.5 8144.05 1807.5C8144.05 1825.5 8140.05 1839 8132.05 1848C8124.05 1857 8111.05 1863 8093.05 1866C8085.05 1867 8076.55 1868 8067.55 1869C8058.55 1870 8050.05 1870.5 8042.05 1870.5Z" fill="black"/>
<path d="M1035.93 453.127C1039.79 474.671 1034.8 495.679 1014.79 497.568L981.587 503.561L967.787 1023.38C938.55 1039.01 911.944 1047.59 889.981 1046.83C854.562 1045.6 846.019 1033.4 820.581 997.094L614.005 625.463L604.656 977.694L672.65 996.713C672.65 996.713 671.525 1039.26 616.369 1037.34L463.902 1041.55C459.727 1031.89 464.785 1008.31 480.421 1004.29L520.411 993.775L532.769 528.176L477.741 521.507C473.881 499.963 485.782 469.689 516.628 468.405L680.212 462.195L895.5 838.856L904.163 512.541L846.962 503.402C843.225 477.337 861.262 458.951 883.462 457.518L1035.93 453.127Z" fill="black"/>
<path fill-rule="evenodd" clip-rule="evenodd" d="M1078.64 177.066C861.981 152.851 638.019 152.851 421.361 177.066C295.607 191.121 194.086 290.184 179.302 416.593C153.393 638.113 153.393 861.894 179.302 1083.41C194.086 1209.82 295.607 1308.89 421.361 1322.94C638.019 1347.16 861.981 1347.16 1078.64 1322.94C1204.39 1308.89 1305.91 1209.82 1320.7 1083.41C1346.61 861.894 1346.61 638.113 1320.7 416.593C1305.91 290.184 1204.39 191.121 1078.64 177.066ZM431.774 270.236C641.513 246.794 858.488 246.794 1068.22 270.236C1151.36 279.528 1217.95 345.128 1227.59 427.483C1252.65 641.769 1252.65 858.237 1227.59 1072.52C1217.95 1154.87 1151.36 1220.48 1068.22 1229.77C858.488 1253.21 641.513 1253.21 431.774 1229.77C348.642 1220.48 282.049 1154.87 272.417 1072.52C247.354 858.237 247.354 641.769 272.417 427.483C282.049 345.128 348.642 279.528 431.774 270.236Z" fill="black"/>
<path d="M1631.21 1412.99V1555.9H1623.86C1555.57 1555.9 1500 1611.45 1500 1679.75V1686.3L1500.98 1692.77L1544.06 1977.92V1978.72V2431.86C1544.06 2500.16 1599.62 2555.71 1667.92 2555.71H2582.08C2650.38 2555.71 2705.94 2500.15 2705.94 2431.86V1978.72V1977.92L2749.02 1692.77L2750 1686.3V1679.75C2750 1611.45 2694.43 1555.9 2626.14 1555.9H2618.79V1412.99C2618.79 1392.73 2602.36 1376.29 2582.08 1376.29H1667.92C1647.65 1376.29 1631.21 1392.73 1631.21 1412.99ZM1718.36 1463.44H2531.64V1555.9H1718.36V1463.44ZM2626.14 1643.05C2646.41 1643.05 2662.85 1659.49 2662.85 1679.75L2618.79 1971.38V1978.72V2211.58V2431.86C2618.79 2452.12 2602.35 2468.56 2582.07 2468.56H1667.92C1647.64 2468.56 1631.21 2452.12 1631.21 2431.86V2211.58V1978.72V1971.38L1587.15 1679.75C1587.15 1659.49 1603.59 1643.05 1623.86 1643.05H2626.14ZM1822.98 2164.36L1823.03 2162.64L1826.85 2151.18H1905.51V2162.8C1905.51 2181.7 1912.13 2197.16 1925.76 2210.08C1939.55 2223.15 1957.1 2229.51 1979.39 2229.51C2001.17 2229.51 2017.68 2223.13 2029.85 2209.99C2042.25 2196.6 2048.28 2179.33 2048.28 2157.19C2048.28 2131.87 2042.67 2113.01 2031.59 2101.15C2020.73 2089.52 2002.63 2083.62 1977.83 2083.62H1915.66V2012.63H1977.83C2001.55 2012.63 2018.12 2007.17 2027.1 1996.38C2036.6 1984.96 2041.41 1968.19 2041.41 1946.55C2041.41 1926.41 2036.29 1910.81 2025.75 1898.84C2015.58 1887.32 2000.42 1881.72 1979.39 1881.72C1958.56 1881.72 1941.93 1887.88 1928.56 1900.54C1915.35 1913.02 1908.94 1928.27 1908.94 1947.17V1958.79H1831.47L1826.18 1948.21L1826.1 1945.66C1824.95 1908.13 1839.27 1875.71 1868.64 1849.29C1897.56 1823.29 1934.82 1810.11 1979.39 1810.11C2024.36 1810.11 2060.36 1821.86 2086.36 1845.04C2112.76 1868.58 2126.14 1903.14 2126.14 1947.81C2126.14 1971.17 2119.91 1992.79 2107.62 2012.09C2099.21 2025.28 2088.44 2036.57 2075.45 2045.8C2091.07 2055.2 2103.73 2067.35 2113.21 2082.1C2126.34 2102.55 2133 2127.39 2133 2155.95C2133 2200.81 2118.41 2236.63 2089.66 2262.42C2061.27 2287.9 2024.16 2300.81 1979.39 2300.81C1938.23 2300.81 1901.45 2288.5 1870.08 2264.21C1837.68 2239.14 1821.83 2205.55 1822.98 2164.36ZM2305.11 1896.8L2206.19 1897.74V1828.11L2390.14 1808.83V2294.26H2305.11V1896.8Z" fill="black"/>
<path d="M887 2441H797C670.989 2441 607.981 2441 559.854 2416.48C517.516 2394.91 483.095 2360.48 461.524 2318.15C437 2270.02 437 2207.01 437 2081V1841M437 1841L287 1991M437 1841L587 1991" stroke="black" stroke-width="66.6667" stroke-linecap="round" stroke-linejoin="round"/>
<path d="M2000 379H2090C2216.01 379 2279.02 379 2327.15 403.525C2369.48 425.095 2403.9 459.516 2425.48 501.854C2450 549.981 2450 612.989 2450 739V979M2450 979L2600 829M2450 979L2300 829" stroke="black" stroke-width="66.6667" stroke-linecap="round" stroke-linejoin="round"/>
</svg>
